# Blender3D v245 OBJ File: tree.blend
# www.blender3d.org
mtllib tree.mtl
o Sphere
v 1.838478 2.185786 0.000000
v 2.000000 3.600000 -0.000000
v 1.414214 5.014214 -0.000000
v -0.000000 5.600000 -0.000000
v 1.000000 5.014214 1.000000
v 1.414214 3.600000 1.414214
v 1.300000 2.185786 1.300000
v -0.000000 2.185786 1.838478
v -0.000000 3.600000 2.000000
v -0.000000 5.014214 1.414214
v -1.000000 5.014214 1.000000
v -1.414214 3.600000 1.414214
v -1.300000 2.185786 1.300000
v -1.838478 2.185786 -0.000000
v -2.000000 3.600000 -0.000000
v -1.414214 5.014214 -0.000000
v -1.000000 5.014214 -1.000000
v -1.414213 3.600000 -1.414214
v -1.300000 2.185786 -1.300000
v 0.000000 2.185786 -1.838478
v 0.000001 3.600000 -2.000000
v 0.000000 5.014214 -1.414214
v 1.000000 5.014214 -1.000000
v 1.414214 3.600000 -1.414213
v 1.300001 2.185786 -1.300000
v 0.556693 2.744976 0.000000
v 0.393641 2.744976 0.393641
v 0.000000 2.744976 0.556693
v -0.393641 2.744976 0.393641
v -0.556693 2.744976 -0.000000
v -0.393641 2.744976 -0.393641
v 0.000000 2.744976 -0.556693
v 0.393641 2.744976 -0.393641
v 0.393641 0.588251 0.393641
v 0.556693 0.588251 0.000000
v 0.000000 0.588251 0.556693
v -0.393641 0.588251 0.393641
v -0.556693 0.588251 -0.000000
v -0.393641 0.588251 -0.393641
v 0.000000 0.588251 -0.556693
v 0.393641 0.588251 -0.393641
v 0.000000 -0.011749 0.000000
v 0.590462 -0.011749 -0.590462
v 0.000000 -0.011749 -0.835039
v -0.590462 -0.011749 -0.590462
v -0.835039 -0.011749 -0.000000
v -0.590462 -0.011749 0.590462
v -0.000000 -0.011749 0.835040
v 0.835039 -0.011749 0.000000
v 0.590462 -0.011749 0.590462
vn 0.923880 -0.000000 0.382683
vn 0.382683 0.000000 0.923880
vn -0.382684 0.000000 0.923879
vn -0.923880 0.000000 0.382683
vn -0.923880 0.000000 -0.382684
vn -0.382683 -0.000000 -0.923880
vn 0.382684 -0.000000 -0.923879
vn 0.923880 0.000000 -0.382683
vn 0.849171 0.393940 -0.351738
vn 0.351738 0.393940 -0.849171
vn -0.351738 0.393940 -0.849171
vn -0.849171 0.393940 -0.351738
vn -0.849171 0.393940 0.351738
vn -0.351738 0.393940 0.849171
vn 0.351738 0.393940 0.849171
vn 0.849171 0.393940 0.351738
vn -0.000000 -1.000000 0.000000
vn 0.377964 0.912487 0.156558
vn 0.862856 0.357407 0.357407
vn 0.918779 -0.104937 0.380571
vn 0.380571 -0.104937 0.918779
vn 0.357407 0.357407 0.862856
vn 0.156558 0.912487 0.377964
vn -0.156558 0.912487 0.377964
vn -0.357407 0.357407 0.862856
vn -0.380571 -0.104937 0.918779
vn -0.918779 -0.104937 0.380570
vn -0.862856 0.357407 0.357407
vn -0.377964 0.912487 0.156558
vn -0.377964 0.912487 -0.156558
vn -0.862856 0.357407 -0.357407
vn -0.918779 -0.104937 -0.380571
vn -0.380570 -0.104937 -0.918779
vn -0.357407 0.357407 -0.862856
vn -0.156558 0.912487 -0.377964
vn 0.156558 0.912487 -0.377964
vn 0.357407 0.357407 -0.862856
vn 0.380571 -0.104937 -0.918779
vn 0.918779 -0.104937 -0.380570
vn 0.862856 0.357407 -0.357407
vn 0.377964 0.912487 -0.156558
vn -0.394489 -0.904256 -0.163403
vn -0.163403 -0.904256 -0.394489
vn 0.163403 -0.904256 -0.394489
vn 0.394489 -0.904256 -0.163403
vn 0.394489 -0.904256 0.163403
vn 0.163403 -0.904256 0.394489
vn -0.163403 -0.904255 0.394489
vn -0.394489 -0.904256 0.163403
usemtl Material.001
s off
f 26//1 27//1 34//1 35//1
f 27//2 28//2 36//2 34//2
f 28//3 29//3 37//3 36//3
f 29//4 30//4 38//4 37//4
f 30//5 31//5 39//5 38//5
f 31//6 32//6 40//6 39//6
f 32//7 33//7 41//7 40//7
f 33//8 26//8 35//8 41//8
f 41//9 35//9 49//9 43//9
f 40//10 41//10 43//10 44//10
f 39//11 40//11 44//11 45//11
f 38//12 39//12 45//12 46//12
f 37//13 38//13 46//13 47//13
f 36//14 37//14 47//14 48//14
f 34//15 36//15 48//15 50//15
f 35//16 34//16 50//16 49//16
f 49//17 50//17 42//17
f 50//17 48//17 42//17
f 48//17 47//17 42//17
f 47//17 46//17 42//17
f 46//17 45//17 42//17
f 45//17 44//17 42//17
f 44//17 43//17 42//17
f 43//17 49//17 42//17
usemtl Material.002
f 4//18 5//18 3//18
f 3//19 5//19 6//19 2//19
f 7//20 1//20 2//20 6//20
f 6//21 9//21 8//21 7//21
f 5//22 10//22 9//22 6//22
f 4//23 10//23 5//23
f 4//24 11//24 10//24
f 10//25 11//25 12//25 9//25
f 9//26 12//26 13//26 8//26
f 12//27 15//27 14//27 13//27
f 11//28 16//28 15//28 12//28
f 4//29 16//29 11//29
f 4//30 17//30 16//30
f 16//31 17//31 18//31 15//31
f 15//32 18//32 19//32 14//32
f 18//33 21//33 20//33 19//33
f 17//34 22//34 21//34 18//34
f 4//35 22//35 17//35
f 4//36 23//36 22//36
f 22//37 23//37 24//37 21//37
f 21//38 24//38 25//38 20//38
f 1//39 25//39 24//39 2//39
f 23//40 3//40 2//40 24//40
f 4//41 3//41 23//41
f 1//42 7//42 27//42 26//42
f 7//43 8//43 28//43 27//43
f 8//44 13//44 29//44 28//44
f 13//45 14//45 30//45 29//45
f 14//46 19//46 31//46 30//46
f 19//47 20//47 32//47 31//47
f 20//48 25//48 33//48 32//48
f 25//49 1//49 26//49 33//49

